<svg id="Camada_1" data-name="Camada 1" xmlns="http://www.w3.org/2000/svg" viewBox="0 0 884.34 896.64"><defs><style>.cls-1{fill:#04497b;}.cls-2{fill:#fff;}</style></defs><path class="cls-1" d="M1929.88-941.27c-237.09-3.07-435.42,188.62-438.55,423.88C1488-269.56,1680.33-71.14,1933.18-73c235.69-1.75,422.07-189,427.21-424.87C2366.1-760.18,2148.59-946.25,1929.88-941.27Zm-6,649.13c-120.08-1.42-214.54-98.35-212.9-218.45,1.6-116.31,97.79-213.43,209.52-211.54C2048.81-720,2141.42-626.72,2140.13-501,2139-387.31,2039.05-290.77,1923.93-292.14Z" transform="translate(-1491.29 969.64)"/><path class="cls-2" d="M1945-969.54c-237.09-3.07-435.42,188.63-438.54,423.88-3.3,247.83,189,446.26,441.84,444.38,235.69-1.74,422.07-189,427.21-424.87C2381.24-788.44,2163.73-974.51,1945-969.54Zm-6,649.14c-120.07-1.43-214.54-98.36-212.9-218.46,1.6-116.31,97.79-213.42,209.52-211.53C2064-748.23,2156.56-655,2155.27-529.3,2154.1-415.57,2054.19-319,1939.07-320.4Z" transform="translate(-1491.29 969.64)"/></svg>