<?xml version="1.0" encoding="utf-8"?>
<!-- Generator: Adobe Illustrator 25.1.0, SVG Export Plug-In . SVG Version: 6.00 Build 0)  -->
<svg version="1.1" id="Camada_1" xmlns="http://www.w3.org/2000/svg" xmlns:xlink="http://www.w3.org/1999/xlink" x="0px" y="0px"
	 viewBox="0 0 725.1 762.6" style="enable-background:new 0 0 725.1 762.6;" xml:space="preserve">
<style type="text/css">
	.st0{fill:#AC141E;}
	.st1{fill:#FFFFFF;}
</style>
<g>
	<polygon class="st0" points="725.1,596.7 725.1,630.7 692.1,603.4 	"/>
	<polygon class="st0" points="722,128.7 722,162.7 674.1,147.4 	"/>
	<polygon class="st0" points="1.2,632.8 1.2,598.8 34.1,617.4 	"/>
	<polygon class="st0" points="0,130.9 0,164.9 20.1,146.1 	"/>
	<path class="st0" d="M592.9,34L722,162.7L487.5,394.6l237.6,236.1L597.2,758L367.5,524.5L132.4,762.6L1.2,632.8L235.8,400L0,164.9
		L128.1,36.4l231.3,232.6C439.7,188.2,517.2,110.2,592.9,34z"/>
	<path class="st1" d="M592.9,0L722,128.7L487.5,360.6l237.6,236.1L597.2,724L367.5,490.5L132.4,728.6L1.2,598.8L235.8,366L0,130.9
		L128.1,2.4l231.3,232.6C439.7,154.2,517.2,76.2,592.9,0z"/>
</g>
</svg>
