<svg id="Camada_1" data-name="Camada 1" xmlns="http://www.w3.org/2000/svg" viewBox="0 0 296.11 296.2"><defs><style>.cls-1{fill:#fff;opacity:0.7;}</style></defs><path class="cls-1" d="M730.36-363h15c1.13.2,2.25.45,3.39.58,4.2.48,8.44.7,12.61,1.4,31.22,5.2,58.24,18.8,80.67,41.13,23.31,23.21,37.46,51.17,42.21,83.79.66,4.55,1.15,9.13,1.72,13.7v17.93c-.64,4.66-1.14,9.34-2,14-5.89,33.45-20.95,62.11-46.26,84.8-37.24,33.41-80.9,45.34-129.91,35.64-36.21-7.17-65.66-26.11-87.9-55.56-25.3-33.5-34.49-71.4-28.17-112.84a142.15,142.15,0,0,1,36-75.27c23.82-26.3,53.35-42.24,88.52-47.52C721-361.95,725.69-362.42,730.36-363Zm52.39,64.15C761.6-299.12,743.92-282,743.64-261A38.61,38.61,0,0,0,783-221.41a38.34,38.34,0,0,0,38.1-37.89C821.65-282.7,802.25-299.29,782.75-298.85Zm-89.07,167.9c19.83.5,39.42-16.85,38.45-40.33-.81-19.53-16.44-36.88-38-37.08a38.68,38.68,0,0,0-39.53,39.24A38.8,38.8,0,0,0,693.68-130.95ZM718.16-299.2l-25,25.19-24.8-24.94-13.74,13.78L679.87-260l-25.15,25,14.06,13.92L694-246.61l24.64,25c4.53-4.5,9-9,13.71-13.65l-25.48-25.31L732-285.4Zm39,91L743.6-194.64,769-169.3c-8.66,8.48-17.09,16.75-25.12,24.63l13.67,13.78,24.8-24.86,24.81,24.87,13.9-13.86L796-169.68l25.19-24.87L806.77-208.7l-24.83,25.32Z" transform="translate(-589.89 363)"/><path class="cls-1" d="M763.23-260.44c.14-10.37,8.72-19,18.69-18.86,11.43.19,19.69,8.51,19.58,19.72-.11,10.14-9,18.75-19.28,18.62A19.11,19.11,0,0,1,763.23-260.44Z" transform="translate(-589.89 363)"/><path class="cls-1" d="M712.44-169.74c0,11-8.35,19.25-19.67,19.27-10,0-18.49-8.68-18.53-19a19.1,19.1,0,0,1,19.15-19.31A19.11,19.11,0,0,1,712.44-169.74Z" transform="translate(-589.89 363)"/></svg>