<svg id="Camada_1" data-name="Camada 1" xmlns="http://www.w3.org/2000/svg" viewBox="0 0 788.89 296.2"><defs><style>.cls-1{fill:#50206c;}.cls-2{fill:#3d1952;}.cls-3{fill:#fff;}</style></defs><path class="cls-1" d="M317.36-353h15c1.13.2,2.25.45,3.39.58,4.2.48,8.44.7,12.61,1.4,31.22,5.2,58.24,18.8,80.67,41.13,23.31,23.21,37.46,51.17,42.21,83.79.66,4.55,1.15,9.13,1.72,13.7v17.93c-.64,4.66-1.14,9.34-1.95,14-5.89,33.45-20.95,62.11-46.26,84.8-37.24,33.41-80.9,45.34-129.91,35.64-36.21-7.17-65.66-26.11-87.9-55.56-25.3-33.5-34.49-71.4-28.17-112.84a142.15,142.15,0,0,1,36-75.27c23.82-26.3,53.35-42.24,88.52-47.52C308-351.95,312.69-352.42,317.36-353Zm52.39,64.15C348.6-289.12,330.92-272,330.64-251A38.61,38.61,0,0,0,370-211.41a38.34,38.34,0,0,0,38.1-37.89C408.65-272.7,389.25-289.29,369.75-288.85Zm-89.07,167.9c19.83.5,39.42-16.85,38.45-40.33-.81-19.53-16.44-36.88-38-37.08a38.68,38.68,0,0,0-39.53,39.24A38.8,38.8,0,0,0,280.68-120.95ZM305.16-289.2l-25,25.19-24.8-24.94-13.74,13.78L266.87-250l-25.15,25,14.06,13.92L281-236.61l24.64,25c4.53-4.5,9-9,13.71-13.65l-25.48-25.31L319-275.4Zm39,91L330.6-184.64,356-159.3c-8.66,8.48-17.09,16.75-25.12,24.63l13.67,13.78,24.8-24.86,24.81,24.87,13.9-13.86L383-159.68l25.19-24.87L393.77-198.7l-24.83,25.32Z" transform="translate(-176.89 353)"/><path class="cls-2" d="M408.49-250.56a38.33,38.33,0,0,1-38.1,37.89A38.61,38.61,0,0,1,331-252.3a37.22,37.22,0,0,1,2.14-11.93l-13.78-12.42-24.79,25.21,25.13,25L306-212.82l-24.64-25-25.22,25.54L269-197.77h0a40.59,40.59,0,0,1,12.49-1.84c21.58.19,37.21,17.55,38,37.07,1,23.49-18.63,40.84-38.46,40.34a38.36,38.36,0,0,1-24.36-8.38L323.94-58.1c37.47.85,71.39-12.11,101.2-38.85,25.3-22.7,40.36-51.35,46.26-84.81.81-4.62,1.3-9.31,2-14l-71.64-77.75A38.53,38.53,0,0,1,408.49-250.56ZM408.41-136,394.5-122.13,369.7-147Q357-134.28,344.9-122.14l-13.68-13.79,25.13-24.63-25.41-25.33,13.58-13.59,24.77,24.85,24.83-25.32,14.42,14.15-25.19,24.87Z" transform="translate(-176.89 353)"/><polygon class="cls-2" points="217.5 71.59 217.49 71.58 217.49 71.58 217.5 71.59"/><path class="cls-2" d="M248.55-139.31l0,0,0-.06Z" transform="translate(-176.89 353)"/><path class="cls-3" d="M369.75-288.85c19.5-.44,38.9,16.15,38.39,39.55A38.34,38.34,0,0,1,370-211.41,38.61,38.61,0,0,1,330.64-251C330.92-272,348.6-289.12,369.75-288.85Zm-19.52,38.41a19.11,19.11,0,0,0,19,19.48c10.26.13,19.17-8.48,19.28-18.62.11-11.21-8.15-19.53-19.58-19.72C359-269.47,350.37-260.81,350.23-250.44Z" transform="translate(-176.89 353)"/><path class="cls-3" d="M280.68-120.95a38.8,38.8,0,0,1-39.1-38.17,38.68,38.68,0,0,1,39.53-39.24c21.58.2,37.21,17.55,38,37.08C320.1-137.8,300.51-120.45,280.68-120.95Zm18.76-38.79a19.11,19.11,0,0,0-19.05-19.07,19.1,19.1,0,0,0-19.15,19.31c0,10.35,8.51,19.05,18.53,19C291.09-140.49,299.47-148.7,299.44-159.74Z" transform="translate(-176.89 353)"/><path class="cls-3" d="M305.16-289.2,319-275.4l-25.14,24.87,25.48,25.31c-4.69,4.68-9.18,9.15-13.71,13.65l-24.64-25-25.21,25.54L241.72-225l25.15-25-25.29-25.21,13.74-13.78L280.12-264Z" transform="translate(-176.89 353)"/><path class="cls-3" d="M344.17-198.22l24.77,24.84,24.83-25.32,14.42,14.15L383-159.68l25.06,24.94-13.9,13.86-24.81-24.87-24.8,24.86-13.67-13.78c8-7.88,16.46-16.15,25.12-24.63l-25.4-25.34Z" transform="translate(-176.89 353)"/><path class="cls-1" d="M350.23-250.44c.14-10.37,8.72-19,18.69-18.86,11.43.19,19.69,8.51,19.58,19.72-.11,10.14-9,18.75-19.28,18.62A19.11,19.11,0,0,1,350.23-250.44Z" transform="translate(-176.89 353)"/><path class="cls-1" d="M299.44-159.74c0,11-8.35,19.25-19.67,19.27-10,0-18.49-8.68-18.53-19a19.1,19.1,0,0,1,19.15-19.31A19.11,19.11,0,0,1,299.44-159.74Z" transform="translate(-176.89 353)"/><path d="M541.64-272.13q0,14.31-2.34,22.15-4.24,13.92-13.63,21.82a3.07,3.07,0,0,1-1.77,1,1.72,1.72,0,0,1-1.26-.74q-2-2.35-6.24-7-2.48-2.06-7.28-6.41a1.93,1.93,0,0,1-.63-1.14,1.55,1.55,0,0,1,.63-1.09,60.61,60.61,0,0,0,5.39-5.1,18.82,18.82,0,0,0,3.43-6.75q1.6-5.55,1.6-18.27,0-29.43-2.06-45.63a5.38,5.38,0,0,1-.11-.86c0-.69.61-1,1.83-1s3,.06,5.41.17,4.19.17,5.41.17,2.84-.05,5.1-.17,4-.17,5.09-.17,1.66.5,1.66,1.49q0,7.9-.11,23.79T541.64-272.13Z" transform="translate(-176.89 353)"/><path d="M632.62-281.12q0,17.87-11.39,29.94-11.62,12.26-29.43,12.25t-29.37-12.36Q551-263.38,551-281.12t11.45-29.95q11.67-12.42,29.37-12.42t29.32,12.42Q632.63-298.81,632.62-281.12Zm-21.7-.12a21.51,21.51,0,0,0-5.21-14.6,17.54,17.54,0,0,0-13.91-6.3,17.4,17.4,0,0,0-13.68,6.53,21.51,21.51,0,0,0-5.44,14.49,21.45,21.45,0,0,0,5.09,14.6,17.81,17.81,0,0,0,14,6.12,17.61,17.61,0,0,0,13.74-6.47A21.2,21.2,0,0,0,610.92-281.24Z" transform="translate(-176.89 353)"/><path d="M716.5-242.88c.08,1-.46,1.55-1.6,1.55a42.24,42.24,0,0,1-6.27-1.26q-5.18-1.26-6.38-1.72a62.81,62.81,0,0,1-23,4.7q-17.7,0-29-11.8Q639-263,639-280.78q0-18.15,10.88-30.12,11.22-12.36,29.14-12.36a40.64,40.64,0,0,1,16.37,3.32,31.05,31.05,0,0,1,13.06,10.3,4.38,4.38,0,0,1,1,1.95q0,1.83-5.12,8.22t-6.62,6.38c-.23,0-1.1-.78-2.63-2.35a24.13,24.13,0,0,0-5.73-4.35,20,20,0,0,0-9.61-2.35,16.41,16.41,0,0,0-13.63,6.42q-4.7,5.89-4.7,14.71,0,9.33,4.87,14.77,5,5.61,14.26,5.61a35.15,35.15,0,0,0,13.05-2.92c-.11-1.26-.46-4.46-1-9.61a80.28,80.28,0,0,1-.74-9.62c0-.73.24-1.17.74-1.32a2.62,2.62,0,0,1,.92-.11c1.1,0,2.77.1,5,.31s3.92.32,5.06.32,3.06-.09,5.5-.26,4.27-.26,5.5-.26c1,0,1.43.63,1.43,1.89q0,2.74-.32,8.3t-.31,8.3q0,7.39,1.09,22.1Z" transform="translate(-176.89 353)"/><path d="M804.05-281.12q0,17.87-11.4,29.94Q781-238.92,763.22-238.93t-29.37-12.36q-11.45-12.09-11.45-29.83t11.45-29.95q11.68-12.42,29.37-12.42t29.32,12.42Q804-298.81,804.05-281.12Zm-21.7-.12a21.56,21.56,0,0,0-5.21-14.6,17.58,17.58,0,0,0-13.92-6.3,17.4,17.4,0,0,0-13.68,6.53,21.51,21.51,0,0,0-5.44,14.49,21.41,21.41,0,0,0,5.1,14.6,17.78,17.78,0,0,0,14,6.12A17.58,17.58,0,0,0,777-266.87,21.21,21.21,0,0,0,782.35-281.24Z" transform="translate(-176.89 353)"/><path d="M573.88-181.58q0-1.26-.46,3.78-.63,6.36-1,16.26Q572-150.32,572-136q0,23.64,1.32,33.66c.07.73.11,1.19.11,1.38,0,.42-.28.66-.86.74q-2.05.28-15.17.29c-2.06,0-3.24-.4-3.55-1.2-.08-1.45-.15-2.91-.23-4.36a1.72,1.72,0,0,0-.46-.91,3.54,3.54,0,0,0-.86.69,21.19,21.19,0,0,1-15.46,6.06q-12.08,0-19.35-8.47-6.93-8.07-6.93-20.38,0-12.48,6.82-20.56,7.21-8.58,19.46-8.59,8.65,0,13.46,5.5c.53.61.92.92,1.15.92s.51-.5.51-1.49q0-4.41-.23-13.17T551.49-179c0-1.11.31-1.74.92-1.89,2.44-.12,5.8-.34,10.08-.69Q573.93-183,572.62-183C573.46-183,573.88-182.53,573.88-181.58ZM552.29-129a11.34,11.34,0,0,0-3.14-7.93,10,10,0,0,0-7.62-3.41,9.14,9.14,0,0,0-7.47,3.41,12.51,12.51,0,0,0-2.78,8.16,11.48,11.48,0,0,0,2.81,7.84,9.24,9.24,0,0,0,7.44,3.44,9.91,9.91,0,0,0,7.67-3.44A11.68,11.68,0,0,0,552.29-129Z" transform="translate(-176.89 353)"/><path d="M639.9-129q0,4.41.51,13.11t.52,13.06q0,2.28-2,2.46-7.09.51-16.26.51c-.72,0-1.21-1.09-1.46-3.29s-.54-3.31-.89-3.35a5.57,5.57,0,0,0-1.2,1Q612.71-99,605.37-99a23,23,0,0,1-18.49-8.81,29.62,29.62,0,0,1-6.93-19.7q0-13.23,7.16-21.3,7.44-8.35,20.38-8.36,9,0,14.2,6.3c.15.19.28.29.4.29.34,0,.73-.93,1.17-2.78s1-2.78,1.58-2.78a49.63,49.63,0,0,1,8.07,1.21A82.23,82.23,0,0,1,641-153c.57.23.86.54.86.92a11.37,11.37,0,0,1-.17,1.2A125.09,125.09,0,0,0,639.9-129Zm-18.44.34a11.13,11.13,0,0,0-3.06-8,10.61,10.61,0,0,0-8-3.18,10.54,10.54,0,0,0-8,3.15,11.16,11.16,0,0,0-3,8.07,11,11,0,0,0,3.2,8,10.4,10.4,0,0,0,7.79,3.32,10.62,10.62,0,0,0,8-3.18A11.11,11.11,0,0,0,621.46-128.62Z" transform="translate(-176.89 353)"/><path d="M705.89-98.93a83.73,83.73,0,0,1-8.81-.23,2.85,2.85,0,0,1-1.84-1.66q-6.53-12.89-13.11-25.82-10.36-20.79-10.36-23.54,0-4.51.31-13.59t.32-13.6c0-1.41.38-2.12,1.14-2.12,2.29,0,5.77.09,10.43.29s8.14.28,10.47.28c1,0,1.43.4,1.43,1.2,0,3.1-.22,7.74-.65,13.95s-.66,10.85-.66,13.94q0,3.54,11.62,25.36,3.15-5.67,7.16-13.91,5.37-11.12,5.38-13.63,0-4.17-.12-12.57t-.11-12.56c0-1,.17-1.61.52-1.72h1.83c2.1,0,5.27-.11,9.53-.32s7.43-.31,9.53-.31c1.15,0,1.72.46,1.72,1.37q0,4.41-.14,13.32t-.14,13.36q0,3.56-11.28,26.11-4.47,8.13-12.89,24.51a5.22,5.22,0,0,1-.77,1.4,4.49,4.49,0,0,1-1.46.26C713-99,710-98.93,705.89-98.93Z" transform="translate(-176.89 353)"/><path d="M802.14-130.25c0,3.85-1.24,6-3.72,6.58q-.63.12-11.85,1.26-6.77.75-20.16,1.78a8.15,8.15,0,0,0,4.87,5.67,17.13,17.13,0,0,0,7.56,1.6,21.7,21.7,0,0,0,10.25-2.75l4.35-2.75q1.2.57,4,5.84t2.84,6.7c0,.27-.29.71-.86,1.32q-7,7.5-21.7,7.5-13.62,0-22-8-8.58-8.07-8.58-21.58,0-13.17,7.67-21.59,7.9-8.7,20.95-8.7a24.89,24.89,0,0,1,18.67,8A26.66,26.66,0,0,1,802.14-130.25Zm-20-3.49a8.84,8.84,0,0,0-2.52-6.24,7.94,7.94,0,0,0-6-2.7,7.23,7.23,0,0,0-6,3,10.37,10.37,0,0,0-2.18,6.58,1.39,1.39,0,0,0,1.6,1.55,100.18,100.18,0,0,0,13.17-1.32C781.47-133,782.1-133.32,782.1-133.74Z" transform="translate(-176.89 353)"/><path d="M829.28-133.63q0,15.63.11,24c0,.88.06,2.39.18,4.52.11,2,.17,3.46.17,4.53,0,.8-.48,1.28-1.43,1.43a62.91,62.91,0,0,1-9.28.46,49.94,49.94,0,0,1-8.76-.46,1.7,1.7,0,0,1-1.43-1.55v-2.46q0-5.1.11-15.26t.12-15.2q0-24,.06-21.93a184.15,184.15,0,0,0-1.43-21.81,5.65,5.65,0,0,1-.12-1c0-.83.5-1.25,1.49-1.25h20.44q1.43,0,1.32,1.2l-.06,1Q829.29-152.63,829.28-133.63Z" transform="translate(-176.89 353)"/><path d="M896.9-140.67l-.12,39.5c0,1.34-.53,2.09-1.6,2.24s-4,.23-8.36.23a56.42,56.42,0,0,1-8.76-.46,2.19,2.19,0,0,1-1.89-2.46q0-4.93.17-14.83t.18-14.83q0-6.71-6.82-6.7a11,11,0,0,0-5.38,1.83q-3.37,2-3.38,4.18v14.14c0,1.84,0,4.59.12,8.28s.11,6.44.11,8.27c0,1.41-.59,2.2-1.77,2.35s-4.51.23-10,.23a35.15,35.15,0,0,1-6.75-.46c-1.38-.31-2.06-1-2.06-2q0-4.52,0-13.59t.06-13.6q0-18.72-.4-31-.17-4.29-.29-8.58a58.05,58.05,0,0,0-1-8.54,5.65,5.65,0,0,1-.17-1.08,1.13,1.13,0,0,1,.86-1.15,23,23,0,0,1,5.21-.63c3.05-.11,4.83-.21,5.33-.28l10.36-1.21c.61,0,.91.4.91,1.21,0,1.22-.07,2.88-.22,5-.16,2.44-.23,4.1-.23,5q-.34,12.93-.35,20.44c0,.76.19,1.14.58,1.14.07,0,1-.66,2.92-2a38.12,38.12,0,0,1,6.35-3.72,21.55,21.55,0,0,1,8.76-2,19.3,19.3,0,0,1,12.25,3.84A13.5,13.5,0,0,1,896.9-140.67Z" transform="translate(-176.89 353)"/><path d="M963.77-127.79q0,4.41.52,13.11t.51,13.06c0,1.52-.66,2.34-2,2.46q-7.09.51-16.26.51c-.73,0-1.21-1.09-1.46-3.29s-.54-3.31-.89-3.35a5.69,5.69,0,0,0-1.2,1q-6.42,6.47-13.74,6.47a23,23,0,0,1-18.5-8.82,29.67,29.67,0,0,1-6.92-19.7q0-13.21,7.15-21.3,7.46-8.35,20.39-8.36,9,0,14.2,6.3c.15.19.28.29.4.29.34,0,.73-.93,1.17-2.78s1-2.78,1.57-2.78a50.73,50.73,0,0,1,8.08,1.21,82.23,82.23,0,0,1,8.13,1.94c.57.23.86.54.86.92a11.37,11.37,0,0,1-.17,1.2A125.07,125.07,0,0,0,963.77-127.79Zm-18.43.34a11.09,11.09,0,0,0-3.07-8,10.57,10.57,0,0,0-8-3.18,10.54,10.54,0,0,0-8,3.15,11.13,11.13,0,0,0-3,8.07,11,11,0,0,0,3.21,8,10.4,10.4,0,0,0,7.79,3.32,10.67,10.67,0,0,0,8-3.17A11.15,11.15,0,0,0,945.34-127.45Z" transform="translate(-176.89 353)"/></svg>